<svg width="1320" height="629" viewBox="0 0 1320 629" fill="none" xmlns="http://www.w3.org/2000/svg">
<path d="M1176 969.5L746.997 969.501L196.699 969.501L0.00270627 729.312L0.011006 676.99C0.0214733 610.705 34.2223 549.112 90.4822 514.061L110.288 501.722C156.168 473.136 166.677 410.84 132.712 368.786L79.6267 303.057C15.5768 220.722 47.0904 100.038 143.218 59.5299L154.238 54.8859C182.385 43.0248 212.146 35.4349 242.535 32.3672L534.464 2.89873C562.892 0.029156 591.548 0.292192 619.918 3.68301L841.388 30.1536C863.644 32.8137 886.122 33.0755 908.434 30.9343L1076.61 14.7953C1179.01 4.96857 1263.33 94.0943 1247.85 195.795L1229.91 313.627C1219.99 378.775 1234.46 445.292 1270.55 500.428C1336.37 600.973 1335.67 731.129 1268.8 830.969L1176 969.5Z" fill="#3A8151"/>
</svg>
